<svg id="Layer_1" data-name="Layer 1" xmlns="http://www.w3.org/2000/svg" viewBox="0 0 296.97 73"><defs><style>.cls-1{fill:#a5640e;}.cls-12,.cls-2{fill:#fff;}.cls-20,.cls-3{fill:#350d02;}.cls-4{fill:#699b08;}.cls-5{fill:#ff5a34;}.cls-6{fill:#ffb182;}.cls-7{fill:#44bf00;}.cls-8{fill:#d15400;}.cls-9{fill:#d69f05;}.cls-10{fill:#473434;}.cls-10,.cls-11{opacity:0.22;}.cls-11,.cls-13,.cls-14,.cls-15,.cls-16{fill:#300b0b;}.cls-12{opacity:0.46;}.cls-13{opacity:0.36;}.cls-14{opacity:0.39;}.cls-15{opacity:0.38;}.cls-16{opacity:0.48;}.cls-17{fill:#4c1f1f;}.cls-18,.cls-19{fill:#353535;}.cls-19{opacity:0.14;}.cls-20{opacity:0.09;}</style></defs><path class="cls-1" d="M7.46,12.39h6.63V59.91H7.46Zm3.92,41.35H24.26c3.37,0,5.84-.65,7.38-1.93A6.67,6.67,0,0,0,34,46.38v-.1a9.46,9.46,0,0,0-.83-4.15,5.74,5.74,0,0,0-2.63-2.66,10,10,0,0,0-4.61-.93H11.38v-6H25.89a7.93,7.93,0,0,0,5.57-1.73,6.61,6.61,0,0,0,1.88-5.13,6.56,6.56,0,0,0-2.09-5.33c-1.39-1.18-3.49-1.76-6.27-1.76H11.38V12.39H26.19A16.94,16.94,0,0,1,33.9,14a10.4,10.4,0,0,1,4.64,4.44,14.46,14.46,0,0,1,1.54,6.87,11.26,11.26,0,0,1-.95,4.59,9.46,9.46,0,0,1-2.89,3.66,10.93,10.93,0,0,1-4.83,2,10.5,10.5,0,0,1,8.18,6.08,12.39,12.39,0,0,1,1.11,5.23V47a13.38,13.38,0,0,1-1.7,6.8,11.5,11.5,0,0,1-4.87,4.54,16.18,16.18,0,0,1-7.39,1.6H11.38Z"/><path class="cls-1" d="M50.67,12.39h6.66V59.91H50.67Zm3.23,0H81.2v6.34H53.9Zm0,20.75H77.6v6.34H53.9Zm0,20.43H81.2v6.34H53.9Z"/><path class="cls-1" d="M90.67,12.39h6L120,49.13l-.78.85V12.39h6.6V59.88h-6.11L96.49,23.7l.79-.85v37H90.67Z"/><path class="cls-1" d="M133.62,12.39h33.54v6.34H133.62Zm13.44,3.89h6.66V59.91h-6.66Z"/><path class="cls-1" d="M179.35,58.23a14.88,14.88,0,0,1-5.87-6.15,19.59,19.59,0,0,1-2.07-9.2V29.42a19.59,19.59,0,0,1,2.07-9.2,14.88,14.88,0,0,1,5.87-6.15,18.77,18.77,0,0,1,17.52,0,14.88,14.88,0,0,1,5.87,6.15,19.59,19.59,0,0,1,2.07,9.2V42.88a19.59,19.59,0,0,1-2.07,9.2,14.88,14.88,0,0,1-5.87,6.15,18.77,18.77,0,0,1-17.52,0Zm13.94-5.72a9,9,0,0,0,3.47-3.76A12.46,12.46,0,0,0,198,43.11V29.19a12.46,12.46,0,0,0-1.22-5.64,9,9,0,0,0-3.47-3.76,10.82,10.82,0,0,0-10.36,0,9,9,0,0,0-3.47,3.76,12.46,12.46,0,0,0-1.22,5.64V43.11a12.46,12.46,0,0,0,1.22,5.64,9,9,0,0,0,3.47,3.76,10.82,10.82,0,0,0,10.36,0Z"/><polygon class="cls-2" points="221.68 25.94 245.05 17.31 263.56 52.81 240.04 63.04 220.61 26.98 221.68 25.94"/><path class="cls-3" d="M219.07,31.08c0-1.27,0-2.54,0-3.8a5.55,5.55,0,0,1,3.52-5.43c11-5.35,22.55-9.41,33.86-14,3.13-1.27,6.29-2.47,9.44-3.69a7.16,7.16,0,0,1,4-.58,4.13,4.13,0,0,1,3,2.14q8.46,15.11,17,30.17a7,7,0,0,1,.61,5.69c-.53,1.86-1.19,3.68-1.63,5.56a5.84,5.84,0,0,1-3.65,4.12q-8.31,3.66-16.63,7.29l-16.26,7.11c-3.85,1.69-7.7,3.4-11.57,5.06a4.85,4.85,0,0,1-4.61-.29,3.92,3.92,0,0,1-1.44-1.73q-6.54-12.76-13.07-25.54a17.61,17.61,0,0,1-2.34-6.39c-.17-1.89-.17-3.78-.25-5.67Zm29.45-6.47a3.25,3.25,0,0,0-1-2.24,2,2,0,0,0-1.39-.53A1.71,1.71,0,0,1,244,20.76a2.16,2.16,0,0,0-2.3-1.17,4,4,0,0,0-3.26,1.9,1.66,1.66,0,0,1-1.83.86c-.5-.08-1-.21-1.49-.29a4.11,4.11,0,0,0-4,1.68c-.93,1.61-.7,1.87-3,1.24a3.47,3.47,0,0,0-4.18,3.78,14.63,14.63,0,0,0,.93,3.06c.8,1.74,1.76,3.4,2.63,5.1q3.54,6.86,7.06,13.73c1.14,2.24,2.24,4.5,3.4,6.73.46.88,1,1.71,1.55,2.55a.91.91,0,0,0,1.21.4c.46-.18.92-.34,1.36-.55,3.45-1.6,6.91-3.19,10.34-4.83,2-1,4-2,6.05-3.09a6,6,0,0,0,1.37-1,2.36,2.36,0,0,0-.93-3.55c-1.07-.26-1.16-.39-1-1.47,0-.18.06-.35.1-.52a3.21,3.21,0,0,0-2-3.87c-.14-.06-.29-.11-.43-.18-.78-.4-.86-.78-.47-1.57a3.69,3.69,0,0,0,.45-1.42A5.12,5.12,0,0,0,254.47,35a2.28,2.28,0,0,0-1.58-.91c-1.13-.15-1.32-.42-1-1.51a5,5,0,0,0,0-2.83,2.66,2.66,0,0,0-1.9-2,8.2,8.2,0,0,1-1.41-.58c-.61-.33-.69-.73-.43-1.38C248.31,25.43,248.4,25,248.52,24.61Zm19.39,6.84c-.94.05-1.87.09-2.8.17a7.46,7.46,0,0,0-5.2,2.61,3,3,0,0,0-.69,3.32,38.67,38.67,0,0,0,2.1,4c.54.93.93.94,2,.65a16.17,16.17,0,0,1,3.41-.71,7.39,7.39,0,0,1,6.53,2.61,2,2,0,0,0,2.31.83,43.35,43.35,0,0,0,4.17-1.76,2.13,2.13,0,0,0,1.06-2.69,9.75,9.75,0,0,0-3.15-5.42A13.07,13.07,0,0,0,267.91,31.45ZM251.49,16a4.34,4.34,0,0,0-2.64.9,1.11,1.11,0,0,0-.44,1.44c.5,1,1,1.94,1.58,2.86s1,1,1.85.29a4.9,4.9,0,0,1,2.5-1.14,4.78,4.78,0,0,1,3.55,1c.47.33.4.76-.14,1a7.66,7.66,0,0,1-1.19.29c-1.21.27-2.45.47-3.64.82-.72.21-.86.66-.62,1.39A4,4,0,0,0,254,26.94a1.3,1.3,0,0,0,1,.09c1.49-.57,3-1.14,4.43-1.84,1.59-.77,3.1-1.7,4.67-2.53a1.1,1.1,0,0,0,.68-1.28c-.37-1.87-1.16-3.18-3-3.54-.29-.06-.58-.08-.87-.15a1.53,1.53,0,0,1-1.3-1.38,6.15,6.15,0,0,0-.46-1.57A1.89,1.89,0,0,0,257,13.42a2.14,2.14,0,0,0-2.21,1.48c-.11.3-.18.6-.28.9-.24.69-.46.77-1.15.59S252.11,16.11,251.49,16Zm27.36,10.93a4.8,4.8,0,0,0-.94-2.87,1.57,1.57,0,0,0-2.67.26c-.11.21-.17.43-.27.65a1.08,1.08,0,0,1-1.72.55,12.28,12.28,0,0,1-1.14-.91,9.47,9.47,0,0,0-1-.8,1.77,1.77,0,0,0-2-.12,1.66,1.66,0,0,0-.62,1.82c.18,1.5,0,1.65-1.48,1.18-.26-.08-.51-.19-.78-.27a13.11,13.11,0,0,0-1.63-.45,2.41,2.41,0,0,0-2.38.81,2.16,2.16,0,0,0-.05,2.38c.36.82.77,1,1.64.75a15.51,15.51,0,0,1,2.22-.51,16.12,16.12,0,0,1,8.6,1.09,1.37,1.37,0,0,0,1.58-.17c.64-.56,1.31-1.11,1.89-1.73A2.73,2.73,0,0,0,278.85,26.91Zm2.55,3.41a3.86,3.86,0,0,0-2.43.93c-.69.57-.68,1.12,0,1.69a15.87,15.87,0,0,1,4.91,6.51c.49,1.31,1.64,1.48,2.62.47a1.6,1.6,0,0,0,.45-1.61,5.52,5.52,0,0,0-.54-1.35c-1.3-2-2.62-4-4-5.91A3.14,3.14,0,0,0,281.4,30.32Zm-6.65-14a2.33,2.33,0,0,0-1.41-2,2.59,2.59,0,0,0-3,.46,10.94,10.94,0,0,0-2.83,5.16.58.58,0,0,0,0,.23c0,.64.29,1,.92.93a5.36,5.36,0,0,0,1.69-.4c1.22-.59,2.42-1.26,3.6-1.95A2.46,2.46,0,0,0,274.75,16.33Zm-11.19-2.76a8.52,8.52,0,0,0,.89,3.42,1.45,1.45,0,0,0,1.35.87,1.29,1.29,0,0,0,1.19-1,13.92,13.92,0,0,0,.59-2.37,11.8,11.8,0,0,0,.09-2.72,1.66,1.66,0,0,0-1.26-1.47,2,2,0,0,0-2,.65A3.49,3.49,0,0,0,263.56,13.57Z"/><ellipse class="cls-4" cx="265.22" cy="13.96" rx="2.89" ry="4.84"/><path class="cls-5" d="M247.07,16.88s2.23-1.57,3.41-1.57,3.08,1.52,3.36.71.53-2.79,1.57-3,2.22-1.51,3.31-.57,1,3.51,1.59,4.13S264,18,265.22,20.36s-.72,3.39-.72,3.39l-10.85,5S248.87,20.86,247.07,16.88Z"/><path class="cls-6" d="M261,42.6a6.23,6.23,0,0,1-2.67-7.25c.77-2,2.74-2.77,4.26-3.39a14.93,14.93,0,0,1,10.59,0c1.32.48,5.94,2.17,7.88,6.57.46,1,1.35,3.07.45,4.79-1.11,2.13-4.41,2.85-6.7,2s-2-1.62-4.12-2.62C267.13,41.14,264.14,44.13,261,42.6Z"/><path class="cls-7" d="M268.6,23.3a3.06,3.06,0,0,1,3.5.09c.88.72.78,1.83,1.43,1.92.36.05.68-.27,1.13-.71,1-.94.87-1.55,1.42-1.8.76-.34,1.86.38,2.42,1a4.2,4.2,0,0,1,.9,3.46,5,5,0,0,1-4.52,4.09c-1.94.17-2.43-.93-4.84-1.32a11.77,11.77,0,0,0-3.88.09c-2.26.37-2.9,1-3.88.6a3,3,0,0,1-1.52-2.87c.15-1.71,2-2.92,3.43-3.06s2.26.84,3.18.31C268.1,24.65,267.81,23.9,268.6,23.3Z"/><path class="cls-8" d="M273.36,14.18a2.89,2.89,0,0,1,1.8,1.7,2.55,2.55,0,0,1,0,1.54c-.22.79-.76,1.37-2.26,2.36-2.39,1.58-3.82,2.52-4.78,1.94a2,2,0,0,1-.8-1.43c-.51-2.32,1.49-5.25,3.85-6.09A3.2,3.2,0,0,1,273.36,14.18Z"/><path class="cls-9" d="M281.1,29.76c1.7.06,2.81,2.13,5,6.25,1.66,3.09,1.61,3.9,1.27,4.41a2.51,2.51,0,0,1-2.77.71c-1.34-.48-1.25-1.9-2.6-4-2-3.13-4.3-3.34-4.17-4.88C278,31,279.65,29.71,281.1,29.76Z"/><path class="cls-10" d="M261.53,34.57c.74-2.15,6.13-2,6.38-2a16.27,16.27,0,0,1,3.86.69c1.55.41,4.44,1.17,4.42,2,0,.54-1.2,1.09-2.28,1.2-2.74.28-3.4-2.41-6.19-2.34a8.19,8.19,0,0,0-4.8,1.58c-.22.19-.72.66-1.07.51S261.33,35.18,261.53,34.57Z"/><path class="cls-11" d="M275.65,43.36c1.76.42,3.18-1.59,4-1a1.28,1.28,0,0,1,.22,1.51c-.65,1.19-3.61.8-5.37.26-2.13-.67-4.2-2.09-4-2.63.13-.36,1.37-.37,2.34-.06C274.44,42,274.45,43.07,275.65,43.36Z"/><path class="cls-12" d="M263.68,14c-.57.41-.23,1.91.35,2.87.27.46.67.92.79.85s-.33-.74-.38-1.83.33-1.62,0-1.89A.66.66,0,0,0,263.68,14Z"/><path class="cls-13" d="M265,29.41c.09.29,1.51.35,2.78-.16s1.28-1.06,2-1c1,0,1.11,1.4,2.65,2a3.93,3.93,0,0,0,2.18.13c1.08-.2,2.42-.85,2.37-1.46a.76.76,0,0,0-.47-.53c-.8-.33-1.4.88-2.72,1a4.6,4.6,0,0,1-2.37-.82c-1.32-.69-1.31-1-2-1.14s-1.31.22-2.56.85C265.81,28.69,264.88,29.16,265,29.41Z"/><path class="cls-14" d="M249.5,20c-1.76-3.47-1-3.29-.59-3.38s.66.92,2.64,2.22c.66.43.38,3.16,1.62,3.46,2.76.68,1.2,5.3,1.27,5.62C254.57,28.47,252,24.91,249.5,20Z"/><path class="cls-15" d="M256.67,13.84a4.24,4.24,0,0,1-1.05,2.24c-.69.74-1.43.91-1.38,1.05s1.79-.16,3.37-.92c1.09-.52,1.18-.78,1.2-.92.08-.55-.75-1.22-2.11-1.76"/><path class="cls-16" d="M273.21,15.25a2,2,0,0,1,.91,2.08,2,2,0,0,1-.53,1c-.63.72-1.24.66-2.34,1.23-1.27.66-1.71,1.39-1.86,1.27s.29-1.6,1.45-2.44,2.21-.52,2.43-1.13-1.14-1.79-.88-2.12C272.52,15,273,15.13,273.21,15.25Z"/><path class="cls-17" d="M288.75,43,239.3,63.69l-.38,7,47.53-20.65s2.21-2.21,2-4a5.32,5.32,0,0,1,1-3.41"/><ellipse class="cls-18" cx="237.83" cy="28.63" rx="0.43" ry="1.04"/><ellipse class="cls-18" cx="254.14" cy="49.6" rx="0.43" ry="1.04"/><ellipse class="cls-18" cx="243.66" cy="26.98" rx="0.43" ry="1.04"/><ellipse class="cls-18" cx="230.08" cy="32.53" rx="0.43" ry="1.04" transform="translate(86.87 215.52) rotate(-60)"/><ellipse class="cls-18" cx="241.67" cy="40.69" rx="0.43" ry="1.04"/><ellipse class="cls-18" cx="241.67" cy="40.69" rx="0.43" ry="1.04"/><ellipse class="cls-18" cx="233.63" cy="39.65" rx="0.43" ry="1.04"/><ellipse class="cls-18" cx="240.04" cy="54.19" rx="0.43" ry="1.04"/><ellipse class="cls-18" cx="241.67" cy="40.69" rx="0.43" ry="1.04"/><ellipse class="cls-18" cx="241.35" cy="33.26" rx="0.43" ry="1.04"/><ellipse class="cls-18" cx="246.34" cy="50.18" rx="0.43" ry="1.04"/><ellipse class="cls-18" cx="250.48" cy="39.36" rx="0.43" ry="1.04"/><ellipse class="cls-19" cx="238.81" cy="33.33" rx="0.43" ry="1.04" transform="translate(3.62 86.5) rotate(-20.68)"/><ellipse class="cls-19" cx="237.05" cy="41.09" rx="1.04" ry="0.43" transform="translate(55.07 198.45) rotate(-50.68)"/><ellipse class="cls-19" cx="242.61" cy="46.99" rx="1.04" ry="0.43" transform="translate(52.54 204.91) rotate(-50.68)"/><ellipse class="cls-19" cx="247.07" cy="41.04" rx="1.04" ry="0.43" transform="translate(58.78 206.19) rotate(-50.68)"/><ellipse class="cls-19" cx="250.27" cy="51.54" rx="1.04" ry="0.43" transform="translate(51.83 212.51) rotate(-50.68)"/><ellipse class="cls-19" cx="241.44" cy="23.92" rx="0.43" ry="1.04" transform="translate(-0.71 39.08) rotate(-9.24)"/><ellipse class="cls-19" cx="238.17" cy="31.18" rx="1.04" ry="0.43" transform="translate(33.99 157.69) rotate(-39.24)"/><ellipse class="cls-19" cx="242.45" cy="38.06" rx="1.04" ry="0.43" transform="translate(30.6 161.95) rotate(-39.24)"/><ellipse class="cls-19" cx="248" cy="33.11" rx="1.04" ry="0.43" transform="translate(34.98 164.35) rotate(-39.24)"/><ellipse class="cls-19" cx="249.06" cy="44.04" rx="1.04" ry="0.43" transform="translate(28.3 167.48) rotate(-39.24)"/><path class="cls-17" d="M219.73,38.31l16.11,31.24s.62,1.52.95.71a60.56,60.56,0,0,0,.62-6.82Z"/><path class="cls-13" d="M287.05,39.35h0a1.67,1.67,0,0,1-.58,1.31,1.47,1.47,0,0,1-1,.26,2.34,2.34,0,0,1-1.69-1c-1.4-1.68-.58-3.08-1.83-4.13-.68-.57-1.51-.66-1.49-1a.71.71,0,0,1,.7-.5c1,0,1.89,2.12,2.29,3.57.27,1,.25,1.59.77,2a2.24,2.24,0,0,0,1.83.2"/><path class="cls-20" d="M227,28.63s-1-.51-1.33.76,1,3.58,1,4.16,5.75,12.57,6.13,13.17S238.26,57,238.26,57a4.16,4.16,0,0,0,2.67,1.51c1.85.32,2.57-.06,5-1.32s3-3.16,2.37-3.48-7.63-4.92-8.25-5.55-2.4-.13-4.4-3.79-5.43-7.71-5.56-8.84.63-5.33.57-5.64S227,28.63,227,28.63Z"/></svg>